<svg width="48" height="48" viewBox="0 0 48 48" fill="none" xmlns="http://www.w3.org/2000/svg">
<rect width="48" height="48" fill="#ED8B00"/>
<path d="M24.0007 28C23.7957 28 23.5997 27.916 23.4587 27.768L18.2087 22.268C17.7537 21.792 18.0917 21 18.7507 21H21.5007V15.25C21.5007 14.561 22.0617 14 22.7507 14H25.2507C25.9397 14 26.5007 14.561 26.5007 15.25V21H29.2507C29.9097 21 30.2477 21.792 29.7927 22.268L24.5427 27.768C24.4017 27.916 24.2057 28 24.0007 28Z" fill="white"/>
<path d="M34.25 34H13.75C12.785 34 12 33.215 12 32.25V31.75C12 30.785 12.785 30 13.75 30H34.25C35.215 30 36 30.785 36 31.75V32.25C36 33.215 35.215 34 34.25 34Z" fill="white"/>
</svg>
