<svg width="93" height="33" viewBox="0 0 93 33" fill="none" xmlns="http://www.w3.org/2000/svg">
<path fill-rule="evenodd" clip-rule="evenodd" d="M16.6552 6.25876C16.8532 6.14771 17.094 6.14746 17.2922 6.25808L23.4364 9.86221C23.7535 10.0391 23.9101 10.5668 23.7345 10.8863C23.5589 11.2059 23.0357 11.3693 22.7186 11.1924L16.9905 7.81393L11.2898 11.1519C10.9731 11.3295 10.4973 11.1296 10.321 10.8105C10.1448 10.4913 10.2493 10.0267 10.566 9.84908L16.6552 6.25876ZM16.9905 22.0381C17.353 22.0393 17.737 22.3163 17.7357 22.6815V25.1296L22.6167 22.2657C22.9334 22.0881 23.4233 22.3738 23.5995 22.6929C23.7758 23.0121 23.6413 23.4156 23.3246 23.5932L17.6984 26.8932C17.2146 27.1265 16.7742 27.1265 16.2826 26.8932L10.5446 23.5174C10.2303 23.3355 10.1344 22.8258 10.3149 22.509C10.4954 22.1923 11.0127 22.0458 11.327 22.2277L16.2453 25.1296V22.6815C16.2466 22.3163 16.628 22.0369 16.9905 22.0381Z" fill="url(#paint0_linear)"/>
<path fill-rule="evenodd" clip-rule="evenodd" d="M26.0298 11.2174C26.2275 11.3416 26.3051 11.539 26.3051 11.7827V21.3938C26.3051 21.7747 26.0199 22.0546 25.6548 22.0835C25.2826 22.1129 24.8147 21.8878 24.8147 21.5068V13.3137L17.7354 17.4675V19.7828C17.7354 20.1637 17.3493 20.4827 16.9902 20.4827C16.6311 20.4827 16.245 20.1637 16.245 19.7828V17.4482L9.16568 13.3137V21.431C9.16568 21.8119 8.81685 22.1137 8.45775 22.1137C8.09864 22.1137 7.67529 21.8464 7.67529 21.4655V11.9482C7.67529 11.7052 7.79587 11.4802 7.9926 11.3558C8.1894 11.2314 8.52899 11.1809 8.73049 11.2965L16.9902 16.1586L25.3964 11.2174C25.5978 11.1003 25.8321 11.0933 26.0298 11.2174Z" fill="url(#paint1_linear)"/>
<path fill-rule="evenodd" clip-rule="evenodd" d="M15.5745 2.92067C16.4289 2.39069 17.0707 2.08194 17.9219 2.61723L27.3485 8.15516C27.9668 8.54395 28.1888 9.26904 27.8024 9.89111C27.416 10.5133 26.5665 10.3982 25.9482 10.0093L16.9904 4.74136L6.55769 10.8634V22.488L16.9904 28.6L25.9854 23.3231C26.6185 22.9591 27.6575 22.7981 28.0192 23.435C28.3809 24.072 28.0561 24.7843 27.4231 25.1483L18.7571 30.2265C17.9692 30.6796 16.694 31.1236 15.6118 30.4586L5.6262 24.5793C4.76581 24.1176 4.32211 23.7397 4.32211 22.7586V11.0379C4.3049 10.0811 4.55409 9.35537 5.36538 8.91378L15.5745 2.92067Z" fill="url(#paint2_linear)"/>
<path d="M63.8201 19.2808V16.5151C64.1561 15.9975 64.9078 15.6094 65.5636 15.6094C66.7472 15.6094 67.5309 16.5313 67.5309 17.8898C67.5309 19.2484 66.7472 20.1541 65.5636 20.1541C64.9078 20.1541 64.1561 19.7821 63.8201 19.2808ZM63.8201 21.7876V20.7849C64.428 21.5612 65.2757 21.9817 66.2033 21.9817C68.1547 21.9817 69.626 20.4937 69.626 17.8898C69.626 15.3344 68.1707 13.7818 66.2033 13.7818C65.2917 13.7818 64.428 14.1861 63.8201 14.9786V11H61.7888V21.7876H63.8201Z" fill="#0A3D76"/>
<path d="M74.7427 21.9818C77.3025 21.9818 78.8376 20.1058 78.8376 17.8738C78.8376 15.6581 77.3025 13.782 74.7427 13.782C72.2002 13.782 70.6643 15.6581 70.6643 17.8738C70.6643 20.1058 72.2002 21.9818 74.7427 21.9818ZM74.7427 20.1542C73.4796 20.1542 72.7754 19.103 72.7754 17.8738C72.7754 16.6608 73.4796 15.6096 74.7427 15.6096C76.0066 15.6096 76.7265 16.6608 76.7265 17.8738C76.7265 19.103 76.0066 20.1542 74.7427 20.1542Z" fill="#0A3D76"/>
<path d="M86.8515 21.7878L84.0846 17.7768L86.6757 13.9761H84.4043L82.8208 16.3859L81.2216 13.9761H78.9502L81.5256 17.7768L78.7908 21.7878H81.0457L82.8208 19.1515L84.5802 21.7878H86.8515Z" fill="#0A3D76"/>
<path d="M41.6781 22.0078C44.0293 22.0078 45.3729 20.6978 46.1406 19.3553L44.1893 18.4011C43.7414 19.2907 42.7817 19.9699 41.6781 19.9699C39.7427 19.9699 38.3352 18.4658 38.3352 16.4279C38.3352 14.3901 39.7427 12.886 41.6781 12.886C42.7817 12.886 43.7414 13.5815 44.1893 14.4548L46.1406 13.4844C45.3888 12.142 44.0293 10.8481 41.6781 10.8481C38.4792 10.8481 36 13.1124 36 16.4279C36 19.7435 38.4792 22.0078 41.6781 22.0078Z" fill="url(#paint3_linear)"/>
<path d="M59.0564 21.8136V11.0259H55.8574L53.2663 17.5438L50.6751 11.0259H47.4922V21.8136H49.7635V14.2606L52.7705 21.8136H53.7621L56.7691 14.2606V21.8136H59.0564Z" fill="url(#paint4_linear)"/>
<defs>
<linearGradient id="paint0_linear" x1="10.2289" y1="16.0114" x2="24.0108" y2="16.1146" gradientUnits="userSpaceOnUse">
<stop stop-color="#1758A0"/>
<stop offset="1" stop-color="#0A3D76"/>
</linearGradient>
<linearGradient id="paint1_linear" x1="7.67529" y1="15.9945" x2="26.3023" y2="16.2448" gradientUnits="userSpaceOnUse">
<stop stop-color="#CD1732"/>
<stop offset="0.5" stop-color="#B6142C"/>
<stop offset="1" stop-color="#8B1022"/>
</linearGradient>
<linearGradient id="paint2_linear" x1="4.32129" y1="14.9465" x2="28.1696" y2="15.1049" gradientUnits="userSpaceOnUse">
<stop stop-color="#B6142C"/>
<stop offset="1" stop-color="#A62E41"/>
</linearGradient>
<linearGradient id="paint3_linear" x1="36" y1="15.7923" x2="59.0512" y2="16.1697" gradientUnits="userSpaceOnUse">
<stop stop-color="#B6142C"/>
<stop offset="1" stop-color="#A62E41"/>
</linearGradient>
<linearGradient id="paint4_linear" x1="35.9997" y1="15.7922" x2="59.0509" y2="16.1696" gradientUnits="userSpaceOnUse">
<stop stop-color="#B6142C"/>
<stop offset="1" stop-color="#A62E41"/>
</linearGradient>
</defs>
</svg>
