<svg width="48" height="48" viewBox="0 0 48 48" fill="none" xmlns="http://www.w3.org/2000/svg">
<path d="M24.001 0C14.4155 0 6.61719 7.79831 6.61719 17.3837C6.61719 29.2794 22.174 46.7431 22.8363 47.4807C23.4584 48.1736 24.5446 48.1724 25.1656 47.4807C25.828 46.7431 41.3848 29.2794 41.3848 17.3837C41.3846 7.79831 33.5863 0 24.001 0ZM24.001 26.1299C19.1783 26.1299 15.2548 22.2064 15.2548 17.3837C15.2548 12.561 19.1784 8.63756 24.001 8.63756C28.8236 8.63756 32.747 12.5611 32.747 17.3838C32.747 22.2065 28.8236 26.1299 24.001 26.1299Z" fill="#C71A1A"/>
</svg>
