<svg width="24" height="24" viewBox="0 0 24 24" fill="none" xmlns="http://www.w3.org/2000/svg">
<rect width="24" height="24" fill="#ED8B00"/>
<path d="M11.9998 8.04663C9.85466 8.04663 8.07724 9.7934 8.07724 11.9692C8.07724 14.145 9.82401 15.8918 11.9998 15.8918C14.1756 15.8918 15.9224 14.1144 15.9224 11.9692C15.9224 9.82405 14.145 8.04663 11.9998 8.04663ZM11.9998 14.4821C10.6208 14.4821 9.48692 13.3482 9.48692 11.9692C9.48692 10.5902 10.6208 9.45631 11.9998 9.45631C13.3789 9.45631 14.5127 10.5902 14.5127 11.9692C14.5127 13.3482 13.3789 14.4821 11.9998 14.4821Z" fill="#003C71"/>
<path d="M16.0761 8.84285C16.5669 8.84285 16.9648 8.44496 16.9648 7.95414C16.9648 7.46332 16.5669 7.06543 16.0761 7.06543C15.5853 7.06543 15.1874 7.46332 15.1874 7.95414C15.1874 8.44496 15.5853 8.84285 16.0761 8.84285Z" fill="#003C71"/>
<path d="M18.3743 5.65611C17.5776 4.82869 16.4437 4.39966 15.1566 4.39966H8.8437C6.17757 4.39966 4.40015 6.17708 4.40015 8.84321V15.1255C4.40015 16.4432 4.82918 17.5771 5.68724 18.4045C6.51466 19.2013 7.61789 19.5997 8.87434 19.5997H15.126C16.4437 19.5997 17.5469 19.1706 18.3437 18.4045C19.1711 17.6077 19.6001 16.4739 19.6001 15.1561V8.84321C19.6001 7.55611 19.1711 6.45288 18.3743 5.65611ZM18.2518 15.1561C18.2518 16.1061 17.9147 16.8722 17.3631 17.3932C16.8114 17.9142 16.0453 18.19 15.126 18.19H8.87434C7.95499 18.19 7.18886 17.9142 6.63724 17.3932C6.08563 16.8416 5.80982 16.0755 5.80982 15.1255V8.84321C5.80982 7.92385 6.08563 7.15772 6.63724 6.60611C7.15821 6.08514 7.95499 5.80934 8.87434 5.80934H15.1872C16.1066 5.80934 16.8727 6.08514 17.4243 6.63675C17.9453 7.18837 18.2518 7.9545 18.2518 8.84321V15.1561Z" fill="#003C71"/>
</svg>
