<svg width="1920" height="800" viewBox="0 0 1920 800" fill="none" xmlns="http://www.w3.org/2000/svg">
<g clip-path="url(#clip0)">
<path d="M1920 466.632C1915.65 466.632 1911.87 466.632 1910.97 466.632C1623.4 448.29 1339.58 539.641 1116.8 722.241C1073.39 617.316 996.947 510.91 907.151 439.531C834.54 522.337 742.237 585.552 638.747 623.352C535.256 661.151 423.908 672.319 314.963 655.825C202.139 638.995 95.6885 592.956 6.19282 522.285C4.17839 521.68 2.09998 521.312 0 521.189L0 800H1920V466.632Z" fill="url(#paint0_linear)"/>
<path d="M212.298 477.75C222.02 476.645 230.906 471.731 237.004 464.086V464.086C243.105 456.458 245.924 446.722 244.842 437.017V437.017C244.305 432.206 242.823 427.547 240.484 423.307C238.144 419.067 234.991 415.33 231.205 412.307C227.419 409.285 223.074 407.037 218.419 405.692C213.764 404.348 208.889 403.932 204.073 404.47C199.259 405.005 194.598 406.484 190.358 408.823C186.118 411.162 182.383 414.316 179.366 418.101V418.101C176.335 421.872 174.081 426.206 172.736 430.852C171.39 435.498 170.98 440.365 171.528 445.17V445.17L174.947 444.784C173.975 435.974 176.525 427.137 182.043 420.196V420.196C184.791 416.731 188.204 413.849 192.08 411.719C195.957 409.589 200.221 408.253 204.621 407.789V407.789C213.424 406.849 222.241 409.43 229.144 414.967C236.047 420.505 240.474 428.549 241.455 437.34V437.34C241.947 441.703 241.574 446.12 240.356 450.339C239.139 454.558 237.101 458.496 234.36 461.927V461.927C231.606 465.384 228.192 468.258 224.316 470.382C220.439 472.507 216.178 473.839 211.782 474.302V474.302L212.298 477.75ZM668.47 463.958C673.286 463.417 677.947 461.932 682.187 459.588C686.427 457.243 690.162 454.085 693.177 450.294V450.294C696.206 446.522 698.459 442.188 699.804 437.543C701.149 432.897 701.561 428.031 701.014 423.225V423.225C700.477 418.413 698.996 413.755 696.656 409.515C694.316 405.275 691.163 401.537 687.377 398.515C683.591 395.493 679.247 393.245 674.591 391.9C669.936 390.555 665.061 390.14 660.245 390.678C655.407 391.202 650.72 392.679 646.457 395.024C642.194 397.37 638.439 400.536 635.409 404.341V404.341C632.391 408.119 630.148 412.455 628.809 417.099C627.469 421.744 627.06 426.607 627.604 431.41V431.41L630.99 431.024C630.499 426.666 630.873 422.253 632.091 418.04C633.308 413.826 635.346 409.894 638.086 406.468V406.468C640.84 403.01 644.254 400.133 648.13 398.003C652.006 395.873 656.266 394.534 660.664 394.062V394.062C669.487 393.074 678.34 395.624 685.283 401.153C692.225 406.681 696.688 414.735 697.692 423.547C698.184 427.908 697.808 432.322 696.584 436.537C695.361 440.751 693.315 444.682 690.564 448.103V448.103C687.811 451.562 684.397 454.44 680.521 456.57C676.645 458.7 672.384 460.039 667.986 460.51V460.51L668.47 463.958ZM688.016 449.907C693.963 443.731 697.22 435.453 697.075 426.884C696.93 418.315 693.394 410.152 687.242 404.18V404.18C681.054 398.237 672.764 394.982 664.182 395.127C655.599 395.271 647.424 398.804 641.441 404.954C635.507 411.143 632.26 419.423 632.405 427.992C632.55 436.562 636.076 444.727 642.215 450.713V450.713L644.602 448.296C639.08 442.954 635.905 435.642 635.772 427.964C635.638 420.286 638.559 412.868 643.892 407.338V407.338C649.238 401.831 656.55 398.665 664.227 398.532C671.904 398.399 679.321 401.311 684.855 406.629V406.629C690.367 411.97 693.536 419.276 693.669 426.946C693.802 434.616 690.888 442.027 685.565 447.555V447.555L688.016 449.907ZM437.497 544.649C447.219 543.544 456.105 538.63 462.204 530.986C465.222 527.208 467.465 522.872 468.804 518.228C470.143 513.583 470.553 508.72 470.009 503.917V503.917C468.908 494.211 463.995 485.338 456.351 479.248C448.707 473.157 438.956 470.347 429.24 471.434V471.434C424.424 471.974 419.762 473.459 415.523 475.804C411.283 478.148 407.548 481.307 404.533 485.097V485.097C401.518 488.864 399.277 493.189 397.938 497.823C396.599 502.457 396.187 507.309 396.728 512.102V512.102L400.146 511.715C399.169 502.914 401.72 494.085 407.242 487.16C409.972 483.713 413.359 480.842 417.207 478.712C421.054 476.583 425.287 475.237 429.659 474.753V474.753C438.478 473.766 447.328 476.317 454.265 481.846C461.202 487.375 465.658 495.429 466.655 504.239V504.239C467.144 508.597 466.769 513.009 465.552 517.222C464.334 521.435 462.298 525.368 459.559 528.794V528.794C456.826 532.237 453.438 535.105 449.591 537.235C445.744 539.364 441.513 540.712 437.142 541.201L437.497 544.649ZM457.075 530.47C463.009 524.28 466.256 516 466.111 507.431C465.966 498.862 462.44 490.696 456.301 484.71V484.71C450.111 478.785 441.829 475.541 433.257 475.686C424.686 475.831 416.518 479.352 410.532 485.484V485.484C404.587 491.665 401.329 499.945 401.468 508.516C401.607 517.088 405.132 525.257 411.274 531.243V531.243L413.661 528.827C410.911 526.187 408.708 523.031 407.179 519.54C405.65 516.049 404.825 512.292 404.75 508.482C404.675 504.673 405.352 500.885 406.743 497.337C408.134 493.789 410.21 490.55 412.855 487.804V487.804C418.201 482.297 425.512 479.131 433.19 478.998C440.867 478.865 448.284 481.777 453.818 487.095V487.095C459.329 492.436 462.499 499.741 462.632 507.412C462.765 515.082 459.85 522.492 454.527 528.021V528.021L457.075 530.47ZM231.876 463.603C237.879 457.423 241.18 449.114 241.053 440.503C240.926 431.892 237.381 423.683 231.199 417.682V417.682C225.017 411.745 216.736 408.49 208.161 408.629C199.587 408.768 191.416 412.289 185.43 418.424C179.486 424.6 176.229 432.874 176.368 441.44C176.507 450.007 180.031 458.17 186.172 464.151V464.151L188.558 461.734C183.032 456.44 179.823 449.179 179.629 441.532C179.436 433.885 182.274 426.471 187.526 420.905V420.905C192.876 415.403 200.191 412.242 207.868 412.115C215.545 411.988 222.96 414.906 228.489 420.228V420.228C234.001 425.569 237.17 432.874 237.303 440.545C237.436 448.215 234.522 455.625 229.199 461.154V461.154L231.876 463.603Z" fill="#DDDDDD"/>
<path d="M1492.82 783.017C1494.17 779.892 1495.25 776.658 1496.05 773.35C1494.85 780.104 1492.6 786.629 1489.37 792.685C1488.03 795.263 1486.5 797.74 1484.79 800.097H1492.86C1493.73 798.711 1494.57 797.293 1495.34 795.843C1501.77 783.719 1504.64 770.029 1503.62 756.346C1502.61 742.664 1497.75 729.547 1489.6 718.503V718.503C1486.32 714.082 1482.55 710.039 1478.37 706.451C1474.31 702.972 1469.88 699.956 1465.15 697.46C1453.02 691.034 1439.31 688.163 1425.62 689.177C1411.92 690.192 1398.79 695.052 1387.74 703.196V703.196C1383.31 706.466 1379.26 710.229 1375.68 714.41C1372.19 718.453 1369.17 722.874 1366.68 727.59C1360.7 738.852 1357.79 751.48 1358.22 764.218C1358.65 776.957 1362.41 789.36 1369.13 800.193H1377.26C1370.1 790.192 1365.88 778.394 1365.06 766.127C1364.25 753.859 1366.87 741.607 1372.64 730.748C1377.28 722.033 1383.82 714.467 1391.77 708.61V708.61C1401.82 701.21 1413.75 696.796 1426.2 695.878C1438.64 694.961 1451.09 697.575 1462.12 703.422C1463.38 704.066 1464.6 704.807 1465.83 705.548C1463.74 704.412 1461.59 703.4 1459.38 702.519V702.519C1455.05 700.751 1450.54 699.475 1445.93 698.717C1441.46 697.99 1436.93 697.742 1432.41 697.976C1420.77 698.639 1409.56 702.568 1400.05 709.311C1390.55 716.055 1383.14 725.338 1378.68 736.098C1376.9 740.419 1375.61 744.927 1374.84 749.536C1373.37 758.514 1373.9 767.705 1376.39 776.456C1378.89 785.206 1383.28 793.3 1389.26 800.161H1398.64C1387.89 790.462 1381.37 776.938 1380.48 762.49C1380.01 754.274 1381.4 746.057 1384.55 738.45V738.45C1388.52 728.841 1395.14 720.553 1403.63 714.543C1412.13 708.533 1422.15 705.046 1432.54 704.485C1440.76 704.027 1448.98 705.403 1456.6 708.513V708.513C1466.2 712.469 1474.49 719.054 1480.5 727.509C1486.51 735.964 1490.02 745.946 1490.6 756.303C1491.07 764.519 1489.68 772.736 1486.53 780.343V780.343L1492.82 783.017ZM1153.86 800H1146.8C1145.12 794.941 1143.41 789.849 1141.64 784.822C1136.16 789.817 1130.77 794.876 1125.51 800H1115.84C1123.53 792.524 1131.35 785.176 1139.29 777.958C1133.39 761.652 1126.94 745.626 1119.93 729.878C1094.73 752.049 1070.57 775.423 1047.46 800H1038.23C1063.19 773.17 1089.49 747.615 1117.03 723.433L1116.06 721.274C1067.72 614.733 996.082 520.382 906.409 445.17C813.707 549.232 690.45 621.35 554.257 651.217C522.146 658.255 489.554 662.886 456.753 665.074C423.447 667.279 390.023 666.966 356.764 664.139H356.41L356.99 657.404H357.345C390.227 660.21 423.275 660.523 456.204 658.339C488.669 656.163 520.927 651.574 552.709 644.611C687.428 615.079 809.354 543.75 901.055 440.82C896.604 437.146 892.11 433.537 887.573 429.992C867.583 452.395 846.026 473.351 823.064 492.702C807.26 506.001 790.832 518.525 773.78 530.277C756.728 542.028 739.096 552.963 720.883 563.082L717.657 557.217C735.677 547.249 753.148 536.442 770.071 524.798C786.993 513.154 803.25 500.759 818.839 487.611C841.453 468.534 862.707 447.902 882.445 425.868C821.518 378.675 753.947 340.734 681.92 313.274L684.307 306.829C757.146 334.625 825.452 373.07 886.992 420.905C935.238 365.653 973.443 302.399 999.882 234L1006.33 236.417C979.587 305.399 940.991 369.185 892.282 424.901C896.798 428.478 901.281 432.119 905.732 435.761C923.926 414.893 940.775 392.893 956.178 369.893L961.79 373.631C946.237 396.885 929.227 419.133 910.861 440.24C1001.25 516.085 1073.47 611.216 1122.19 718.632L1122.35 718.954C1274.75 588.174 1460.64 502.455 1659.13 471.434V471.434L1660.19 478.104C1462.01 508.038 1276.46 593.749 1125.25 725.206C1132.19 740.899 1138.67 756.851 1144.61 773.06C1177.81 743.268 1212.92 715.678 1249.72 690.467C1263.08 681.347 1276.66 672.486 1290.4 664.01C1304.14 655.535 1318.14 647.382 1332.33 639.519L1335.55 645.384C1321.49 653.161 1307.6 661.271 1293.88 669.714C1280.16 678.157 1266.69 686.922 1253.47 696.01C1216.14 721.521 1180.58 749.513 1147.03 779.795C1149.41 786.433 1151.67 793.136 1153.86 799.871V800ZM1726.67 641.969C1725.24 651.423 1725.69 661.066 1728 670.345C1730.3 679.624 1734.42 688.357 1740.12 696.042C1745.78 703.738 1752.91 710.239 1761.1 715.172C1769.28 720.105 1778.37 723.373 1787.82 724.787V724.787C1806.94 727.65 1826.42 722.807 1841.96 711.325C1857.51 699.843 1867.85 682.661 1870.72 663.559V663.559C1872.15 654.1 1871.7 644.451 1869.39 635.166C1867.08 625.882 1862.96 617.144 1857.27 609.454V609.454C1845.81 593.932 1828.65 583.592 1809.56 580.709V580.709L1808.56 587.379C1817.14 588.671 1825.38 591.641 1832.81 596.12C1840.24 600.599 1846.71 606.499 1851.85 613.482V613.482C1857.1 620.486 1860.9 628.463 1863.04 636.949C1865.18 645.436 1865.6 654.262 1864.3 662.915C1861.67 680.235 1852.27 695.805 1838.16 706.204C1824.05 716.603 1806.39 720.98 1789.05 718.374V718.374C1780.46 717.08 1772.22 714.109 1764.79 709.63C1757.36 705.151 1750.88 699.253 1745.73 692.272V692.272C1740.53 685.323 1736.76 677.414 1734.63 669.002C1732.51 660.589 1732.07 651.84 1733.34 643.258V643.258L1726.67 641.969ZM1743.67 686.503V686.665C1752.44 701.138 1766.58 711.561 1783.02 715.665C1799.45 719.77 1816.84 717.222 1831.4 708.578V708.578H1831.62H1831.82C1846.32 699.821 1856.76 685.693 1860.88 669.273C1864.99 652.854 1862.44 635.475 1853.78 620.926V620.926V620.732V620.539C1845.01 606.06 1830.87 595.63 1814.44 591.52C1798.01 587.409 1780.61 589.952 1766.05 598.594V598.594H1765.82L1769.28 604.394H1769.5C1782.51 596.695 1798.03 594.427 1812.7 598.083C1827.37 601.738 1840.01 611.022 1847.88 623.923V623.923V624.148C1855.62 637.165 1857.9 652.709 1854.23 667.398C1850.56 682.087 1841.23 694.733 1828.27 702.584V702.584H1828.08H1827.85C1814.83 710.338 1799.27 712.633 1784.56 708.968C1769.85 705.304 1757.19 695.977 1749.34 683.023V683.023V682.83L1743.67 686.503Z" fill="#DDDDDD"/>
</g>
<defs>
<linearGradient id="paint0_linear" x1="960" y1="493" x2="960" y2="774.5" gradientUnits="userSpaceOnUse">
<stop stop-color="#EFEEEE"/>
<stop offset="1" stop-color="#EFEEEE" stop-opacity="0"/>
</linearGradient>
<clipPath id="clip0">
<rect width="1920" height="800" fill="white"/>
</clipPath>
</defs>
</svg>
