<svg width="36" height="36" viewBox="0 0 36 36" fill="none" xmlns="http://www.w3.org/2000/svg">
<rect width="36" height="36" fill="white"/>
<path d="M17.9996 12.0703C14.7819 12.0703 12.1157 14.6905 12.1157 17.9542C12.1157 21.2179 14.7359 23.8381 17.9996 23.8381C21.2633 23.8381 23.8835 21.1719 23.8835 17.9542C23.8835 14.7364 21.2173 12.0703 17.9996 12.0703ZM17.9996 21.7235C15.931 21.7235 14.2302 20.0227 14.2302 17.9542C14.2302 15.8856 15.931 14.1848 17.9996 14.1848C20.0681 14.1848 21.7689 15.8856 21.7689 17.9542C21.7689 20.0227 20.0681 21.7235 17.9996 21.7235Z" fill="#003C71"/>
<path d="M24.1141 13.2652C24.8503 13.2652 25.4471 12.6684 25.4471 11.9321C25.4471 11.1959 24.8503 10.5991 24.1141 10.5991C23.3778 10.5991 22.781 11.1959 22.781 11.9321C22.781 12.6684 23.3778 13.2652 24.1141 13.2652Z" fill="#003C71"/>
<path d="M27.5614 8.48471C26.3662 7.24358 24.6654 6.60004 22.7348 6.60004H13.2654C9.26623 6.60004 6.6001 9.26616 6.6001 13.2654V22.6887C6.6001 24.6654 7.24365 26.3662 8.53074 27.6073C9.77187 28.8025 11.4267 29.4 13.3114 29.4H22.6888C24.6654 29.4 26.3203 28.7565 27.5154 27.6073C28.7565 26.4121 29.4001 24.7113 29.4001 22.7347V13.2654C29.4001 11.3347 28.7565 9.67987 27.5614 8.48471ZM27.3775 22.7347C27.3775 24.1597 26.8719 25.3089 26.0445 26.0904C25.217 26.8718 24.0678 27.2855 22.6888 27.2855H13.3114C11.9324 27.2855 10.7832 26.8718 9.95574 26.0904C9.12832 25.2629 8.71461 24.1137 8.71461 22.6887V13.2654C8.71461 11.8863 9.12832 10.7371 9.95574 9.90971C10.7372 9.12826 11.9324 8.71455 13.3114 8.71455H22.7807C24.1598 8.71455 25.309 9.12826 26.1364 9.95568C26.9178 10.7831 27.3775 11.9323 27.3775 13.2654V22.7347Z" fill="#003C71"/>
</svg>
