<svg width="24" height="24" viewBox="0 0 24 24" fill="none" xmlns="http://www.w3.org/2000/svg">
<rect width="24" height="24" fill="#ED8B00"/>
<path d="M12.0002 8.04672C9.85506 8.04672 8.07764 9.7935 8.07764 11.9693C8.07764 14.1451 9.82441 15.8919 12.0002 15.8919C14.176 15.8919 15.9228 14.1145 15.9228 11.9693C15.9228 9.82414 14.1454 8.04672 12.0002 8.04672ZM12.0002 14.4822C10.6212 14.4822 9.48731 13.3483 9.48731 11.9693C9.48731 10.5903 10.6212 9.4564 12.0002 9.4564C13.3792 9.4564 14.5131 10.5903 14.5131 11.9693C14.5131 13.3483 13.3792 14.4822 12.0002 14.4822Z" fill="#003C71"/>
<path d="M16.0762 8.84303C16.567 8.84303 16.9649 8.44514 16.9649 7.95432C16.9649 7.4635 16.567 7.06561 16.0762 7.06561C15.5854 7.06561 15.1875 7.4635 15.1875 7.95432C15.1875 8.44514 15.5854 8.84303 16.0762 8.84303Z" fill="#003C71"/>
<path d="M18.3746 5.6562C17.5778 4.82878 16.4439 4.39975 15.1568 4.39975H8.84394C6.17781 4.39975 4.40039 6.17717 4.40039 8.8433V15.1256C4.40039 16.4433 4.82942 17.5772 5.68749 18.4046C6.51491 19.2014 7.61813 19.5997 8.87458 19.5997H15.1262C16.4439 19.5997 17.5472 19.1707 18.3439 18.4046C19.1714 17.6078 19.6004 16.4739 19.6004 15.1562V8.8433C19.6004 7.5562 19.1714 6.45298 18.3746 5.6562ZM18.252 15.1562C18.252 16.1062 17.9149 16.8723 17.3633 17.3933C16.8117 17.9143 16.0456 18.1901 15.1262 18.1901H8.87458C7.95523 18.1901 7.1891 17.9143 6.63749 17.3933C6.08587 16.8417 5.81007 16.0756 5.81007 15.1256V8.8433C5.81007 7.92394 6.08587 7.15781 6.63749 6.6062C7.15846 6.08523 7.95523 5.80943 8.87458 5.80943H15.1875C16.1068 5.80943 16.873 6.08523 17.4246 6.63685C17.9456 7.18846 18.252 7.95459 18.252 8.8433V15.1562Z" fill="#003C71"/>
</svg>
