<svg width="160" height="42" viewBox="0 0 160 42" fill="none" xmlns="http://www.w3.org/2000/svg">
<path d="M0.38621 25.0494C2.51011 35.353 12.7105 42.0095 23.1776 39.9188C33.6447 37.8375 40.4069 27.7871 38.2925 17.4835C36.1686 7.17995 25.9587 0.523428 15.4916 2.61414C13.2629 3.05478 11.139 3.87982 9.1961 5.06112C2.29105 9.24254 -1.22338 17.221 0.38621 25.0494ZM37.0068 17.7366C38.5116 25.0307 35.2257 32.4748 28.7874 36.3749C20.3108 41.5126 9.20562 38.9156 3.98636 30.5716C-1.2329 22.2275 1.4053 11.2957 9.88184 6.15804C11.6914 5.06112 13.682 4.29233 15.7583 3.87044C25.5111 1.92974 35.0257 8.13624 37.0068 17.7366Z" fill="white"/>
<path d="M5.4436 14.9709H34.2448C33.6353 13.5271 32.8066 12.1864 31.8066 10.977H12.5201C9.71045 11.3145 7.16748 12.7583 5.4436 14.9709Z" fill="white"/>
<path d="M3.31006 20.493H13.139C13.339 18.9367 14.1391 17.5023 15.3772 16.5085H4.45296C3.80532 17.746 3.41482 19.1055 3.31006 20.493Z" fill="white"/>
<path d="M18.7297 20.493H29.3492C29.5492 18.9367 30.3493 17.5023 31.5969 16.5085H20.9679C19.7298 17.5023 18.9297 18.9367 18.7297 20.493Z" fill="white"/>
<path d="M13.139 22.04H3.31958C3.42435 23.4275 3.81484 24.787 4.47201 26.0245H15.3772C14.1391 25.0307 13.339 23.5963 13.139 22.04Z" fill="white"/>
<path d="M29.3492 22.04H18.7297C18.9297 23.5963 19.7298 25.0307 20.9679 26.0245H31.5969C30.3493 25.0307 29.5492 23.5963 29.3492 22.04Z" fill="white"/>
<path d="M31.8637 31.5559C32.8543 30.3465 33.6733 29.0058 34.2829 27.562H5.46265C7.22462 29.8215 9.84378 31.2559 12.7106 31.5559H19.8823H31.8637Z" fill="white"/>
<path d="M57.7599 23.5681V16.4897H47.6643C47.5976 16.4897 47.4547 16.5272 47.2262 16.6022C46.9976 16.6772 46.7309 16.7991 46.4357 16.9679C46.1309 17.1272 45.8071 17.3429 45.4642 17.596C45.1213 17.8491 44.807 18.1492 44.5118 18.5054C44.226 18.8523 43.9784 19.2555 43.7974 19.7148C43.607 20.1742 43.5117 20.6899 43.5117 21.2618C43.5117 21.8431 43.607 22.3681 43.7974 22.8369C43.9784 23.2962 44.226 23.7088 44.5118 24.0557C44.807 24.4025 45.1213 24.7026 45.4642 24.9651C45.8071 25.2182 46.1309 25.4245 46.4357 25.5838C46.7309 25.7432 46.9976 25.8557 47.2262 25.9214C47.4547 25.9964 47.5976 26.0339 47.6643 26.0339H51.7692L52.855 23.5681V26.0339H57.4361L57.979 24.8057C58.1219 24.5057 58.2457 24.2244 58.36 23.9713C58.4838 23.7181 58.5409 23.5775 58.5409 23.5681H57.7599ZM52.855 23.2212H50.6263C50.3882 23.2212 50.1406 23.1744 49.912 23.0619C49.6834 22.9494 49.4739 22.8087 49.2929 22.6306C49.112 22.4525 48.9691 22.2556 48.8548 22.0212C48.7405 21.7962 48.6929 21.5618 48.6929 21.318C48.6929 21.0649 48.7405 20.8118 48.8548 20.568C48.9691 20.3336 49.112 20.118 49.2929 19.9305C49.4739 19.7524 49.6834 19.6023 49.912 19.4805C50.1406 19.368 50.3882 19.3117 50.6453 19.3117H52.855V23.2212Z" fill="white"/>
<path d="M68.1224 16.4897C68.5129 17.3616 68.8558 18.1585 69.151 18.8523C69.2748 19.143 69.3986 19.4336 69.5225 19.7242C69.6367 20.0055 69.7415 20.2586 69.8368 20.4836C69.932 20.7086 70.0463 20.9618 70.1796 21.243C70.2653 21.0087 70.3796 20.7649 70.5034 20.493C70.6082 20.2774 70.7225 20.0242 70.8558 19.7336C70.9892 19.443 71.1225 19.143 71.2654 18.8523L72.3511 16.4897H75.9322L78.999 23.5681H79.7324L78.6466 26.0339H75.0655L72.8369 21.5431C72.7131 21.7962 72.6083 22.0306 72.5131 22.2368C72.4178 22.4525 72.313 22.6868 72.1892 22.9587C72.0749 23.2212 71.9511 23.4931 71.8273 23.7744C71.5321 24.44 71.1987 25.1901 70.8368 26.0339H67.2462L65.0175 21.5431L64.0937 23.5681H64.8651L63.7413 26.0339H60.1506L64.5318 16.4897H68.1224Z" fill="white"/>
<path d="M94.0664 16.4897L92.7711 20.0711V20.8399L94.1235 23.5681H94.9045L93.7806 26.0339H90.19L87.9614 21.543C87.628 21.5618 87.3899 21.6274 87.247 21.768C87.1042 21.8993 87.028 22.0587 87.028 22.2556C87.028 22.4806 87.1042 22.7243 87.2661 22.9775C87.4185 23.2306 87.5994 23.4275 87.809 23.5681L86.6851 26.0339H82.123V15.5147L81.3516 15.1303L82.4564 12.6739H87.028V19.3117H87.828L89.2376 16.4897H94.0664Z" fill="white"/>
<path d="M110.667 20.6618C110.543 20.0149 110.286 19.4148 109.905 18.8617C109.524 18.3085 109.038 17.821 108.457 17.3991C107.876 16.9866 107.238 16.6772 106.543 16.4897H100.657C100.124 16.6678 99.6569 16.8741 99.2474 17.1085C98.8474 17.3429 98.495 17.5866 98.1997 17.8398C97.914 18.0929 97.6664 18.3554 97.4663 18.6273C97.2663 18.8898 97.1044 19.1523 96.9711 19.4055C96.6758 20.0055 96.5139 20.6243 96.4854 21.2618C96.4854 21.9462 96.6377 22.5556 96.9425 23.0994C97.2473 23.6431 97.6187 24.1119 98.0568 24.515C98.495 24.9088 98.9521 25.237 99.4283 25.4995C99.895 25.7526 100.305 25.9307 100.657 26.0245H106.638C107.752 25.5745 108.619 25.0401 109.248 24.4494C109.876 23.8494 110.295 23.2306 110.524 22.5837C110.753 21.9462 110.8 21.2993 110.667 20.6618ZM105.476 22.0399C105.371 22.2743 105.229 22.4712 105.038 22.64C104.857 22.8181 104.638 22.9494 104.39 23.0525C104.152 23.1556 103.886 23.2025 103.619 23.2025C103.362 23.2025 103.114 23.1556 102.886 23.0525C102.648 22.9494 102.448 22.8181 102.267 22.64C102.086 22.4712 101.933 22.2743 101.828 22.0399C101.714 21.8149 101.657 21.5712 101.657 21.318C101.657 21.0462 101.714 20.793 101.828 20.5399C101.933 20.2961 102.086 20.0805 102.267 19.9024C102.448 19.7242 102.648 19.5836 102.886 19.4711C103.114 19.368 103.362 19.3117 103.619 19.3117C103.886 19.3117 104.152 19.368 104.39 19.4711C104.638 19.5836 104.857 19.7242 105.038 19.9024C105.229 20.0805 105.371 20.2961 105.476 20.5399C105.581 20.793 105.629 21.0462 105.629 21.318C105.629 21.5712 105.581 21.8149 105.476 22.0399Z" fill="white"/>
<path d="M126.611 28.3402V16.4897H116.515C116.448 16.4897 116.305 16.5272 116.077 16.6022C115.848 16.6772 115.591 16.7991 115.286 16.9679C114.981 17.1272 114.658 17.3429 114.315 17.596C113.972 17.8491 113.658 18.1492 113.362 18.5054C113.077 18.8523 112.839 19.2555 112.648 19.7148C112.458 20.1742 112.362 20.6899 112.362 21.2618C112.362 21.8431 112.458 22.3681 112.648 22.8369C112.839 23.2962 113.077 23.7088 113.362 24.0557C113.658 24.4025 113.972 24.7026 114.315 24.9651C114.658 25.2182 114.981 25.4245 115.286 25.5838C115.591 25.7432 115.848 25.8557 116.077 25.9214C116.305 25.9964 116.448 26.0339 116.515 26.0339H120.62L121.715 23.5681V30.7966H126.287L126.83 29.5778C126.972 29.2777 127.096 28.9965 127.22 28.7434C127.334 28.4808 127.391 28.3496 127.391 28.3402H126.611ZM121.715 23.2212H119.477C119.239 23.2212 119.001 23.1744 118.763 23.0619C118.534 22.9587 118.324 22.8087 118.143 22.6306C117.963 22.4525 117.82 22.2556 117.705 22.0212C117.601 21.7962 117.543 21.5618 117.543 21.318C117.543 21.0649 117.591 20.8118 117.696 20.568C117.801 20.3336 117.943 20.118 118.134 19.9305C118.324 19.7524 118.534 19.6023 118.763 19.4805C119.001 19.368 119.239 19.3117 119.496 19.3117H121.715V23.2212Z" fill="white"/>
<path d="M143.202 20.6337C143.068 19.9868 142.811 19.3961 142.43 18.843C142.049 18.2804 141.563 17.8023 140.982 17.3804C140.401 16.9585 139.763 16.6585 139.068 16.4616H133.173C132.649 16.6397 132.173 16.846 131.773 17.0804C131.363 17.3148 131.011 17.5679 130.725 17.821C130.43 18.0742 130.182 18.3367 129.982 18.5992C129.782 18.8711 129.62 19.1336 129.487 19.3867C129.191 19.9774 129.03 20.5962 129.01 21.2337C129.01 21.9181 129.153 22.5369 129.458 23.0713C129.763 23.615 130.134 24.0838 130.572 24.4869C131.011 24.8901 131.468 25.2182 131.944 25.4714C132.411 25.7245 132.82 25.9026 133.173 26.0058H139.163C140.278 25.5464 141.144 25.0213 141.773 24.4213C142.402 23.8213 142.821 23.2025 143.049 22.565C143.278 21.9181 143.325 21.2712 143.202 20.6337ZM138.001 22.0118C137.897 22.2462 137.754 22.4431 137.563 22.6212C137.373 22.79 137.163 22.9306 136.916 23.0244C136.668 23.1275 136.411 23.1838 136.144 23.1838C135.877 23.1838 135.639 23.1275 135.401 23.0244C135.173 22.9306 134.963 22.79 134.782 22.6212C134.601 22.4431 134.458 22.2462 134.344 22.0118C134.239 21.7868 134.182 21.5431 134.182 21.2899C134.182 21.0274 134.239 20.7649 134.344 20.5212C134.458 20.268 134.601 20.0618 134.782 19.8743C134.963 19.7055 135.173 19.5555 135.401 19.4524C135.639 19.3399 135.877 19.2836 136.144 19.2836C136.411 19.2836 136.668 19.3399 136.916 19.4524C137.163 19.5555 137.373 19.7055 137.563 19.8743C137.754 20.0618 137.897 20.268 138.001 20.5212C138.106 20.7649 138.154 21.0274 138.154 21.2899C138.154 21.5431 138.106 21.7868 138.001 22.0118Z" fill="white"/>
<path d="M159.621 19.7148C159.44 19.2555 159.202 18.8523 158.907 18.5054C158.621 18.1492 158.298 17.8491 157.955 17.596C157.612 17.3429 157.297 17.1272 156.993 16.9679C156.688 16.7991 156.421 16.6772 156.183 16.6022C155.955 16.5272 155.812 16.4897 155.755 16.4897H145.992L144.887 18.9461L145.659 19.3305V30.7966H150.231L150.773 29.5778C150.916 29.2777 151.05 28.9965 151.164 28.7434C151.278 28.4808 151.335 28.3496 151.335 28.3402H150.564V23.5681L151.65 26.0339H155.755C155.812 26.0339 155.955 25.9964 156.183 25.9214C156.421 25.8557 156.688 25.7432 156.993 25.5838C157.297 25.4245 157.612 25.2182 157.955 24.9651C158.298 24.7026 158.621 24.4025 158.907 24.0557C159.202 23.7088 159.44 23.2962 159.621 22.8369C159.812 22.3681 159.907 21.8431 159.907 21.2618C159.907 20.6899 159.812 20.1742 159.621 19.7148ZM154.564 22.0212C154.459 22.2556 154.307 22.4525 154.126 22.6306C153.945 22.8087 153.745 22.9494 153.507 23.0619C153.278 23.1744 153.04 23.2212 152.793 23.2212H150.564V19.3117H152.773C153.021 19.3117 153.259 19.368 153.497 19.4805C153.735 19.6023 153.954 19.7524 154.135 19.9305C154.326 20.118 154.469 20.3336 154.574 20.568C154.678 20.8118 154.735 21.0649 154.735 21.318C154.735 21.5618 154.678 21.7962 154.564 22.0212Z" fill="white"/>
</svg>
