<svg width="24" height="24" viewBox="0 0 24 24" fill="none" xmlns="http://www.w3.org/2000/svg">
<path fill-rule="evenodd" clip-rule="evenodd" d="M18.1429 7.78571H5.57143C5.13749 7.78571 4.78571 8.13749 4.78571 8.57143V16.4286C4.78571 16.8625 5.13749 17.2143 5.57143 17.2143H18.1429C18.5768 17.2143 18.9286 16.8625 18.9286 16.4286V8.57143C18.9286 8.13749 18.5768 7.78571 18.1429 7.78571ZM5.57143 7C4.70355 7 4 7.70355 4 8.57143V16.4286C4 17.2964 4.70355 18 5.57143 18H18.1429C19.0107 18 19.7143 17.2964 19.7143 16.4286V8.57143C19.7143 7.70355 19.0107 7 18.1429 7H5.57143Z" fill="white"/>
<path fill-rule="evenodd" clip-rule="evenodd" d="M10.6302 12.8676L4.73682 8.15291L5.22765 7.53937L11.121 12.254C11.5514 12.5984 12.163 12.5984 12.5935 12.254L18.4868 7.53937L18.9776 8.15291L13.0843 12.8676C12.3669 13.4415 11.3475 13.4415 10.6302 12.8676Z" fill="white"/>
</svg>
