<svg width="24" height="24" viewBox="0 0 24 24" fill="none" xmlns="http://www.w3.org/2000/svg">
<path fill-rule="evenodd" clip-rule="evenodd" d="M12.4871 4.6704C9.82523 4.6704 7.69279 6.66801 7.69279 9.10248C7.69279 9.68929 7.9362 10.4957 8.34739 11.4217C8.75427 12.3379 9.30842 13.3344 9.89338 14.2888C10.8655 15.875 11.9111 17.3259 12.4778 18.0691C12.613 17.8819 12.7928 17.6304 13.0036 17.3295C13.4833 16.6444 14.1225 15.7044 14.7611 14.6835C15.4004 13.6615 16.0355 12.5642 16.5097 11.5633C16.9907 10.548 17.2814 9.68137 17.2814 9.10248C17.2814 6.66801 15.1489 4.6704 12.4871 4.6704ZM12.4871 18.637L12.7681 18.833L12.4985 19.195L12.2143 18.8436C11.777 18.3028 10.4833 16.5656 9.29751 14.6308C8.7044 13.6631 8.13402 12.6392 7.71089 11.6864C7.29208 10.7433 7 9.83211 7 9.10248C7 6.27115 9.47069 4 12.4871 4C15.5035 4 17.9742 6.27115 17.9742 9.10248C17.9742 9.84003 17.6223 10.8234 17.1394 11.8427C16.6497 12.8764 15.9996 13.9982 15.3538 15.0307C14.7072 16.0643 14.0612 17.0143 13.5771 17.7056C13.3349 18.0513 13.133 18.3327 12.9915 18.5279C12.9208 18.6254 12.8651 18.7015 12.827 18.7532L12.7834 18.8124L12.7721 18.8276L12.7684 18.8326C12.7683 18.8327 12.7681 18.833 12.4871 18.637ZM12.4871 7.53076C11.2588 7.53076 10.2631 8.49428 10.2631 9.68284C10.2631 10.8714 11.2588 11.8349 12.4871 11.8349C13.7153 11.8349 14.711 10.8714 14.711 9.68284C14.711 8.49428 13.7153 7.53076 12.4871 7.53076ZM9.57034 9.68284C9.57034 8.12403 10.8762 6.86037 12.4871 6.86037C14.098 6.86037 15.4038 8.12403 15.4038 9.68284C15.4038 11.2417 14.098 12.5053 12.4871 12.5053C10.8762 12.5053 9.57034 11.2417 9.57034 9.68284Z" fill="white"/>
</svg>
