<svg width="24" height="24" viewBox="0 0 24 24" fill="none" xmlns="http://www.w3.org/2000/svg">
<path d="M9.25 3.76691C9.25 3.44925 9.50193 3 9.81271 3H13.1889C13.4997 3 13.7517 3.44925 13.7517 3.76691C13.7517 4.08458 13.4997 4.3421 13.1889 4.3421H9.81271C9.50193 4.3421 9.25 4.08458 9.25 3.76691Z" fill="white"/>
<path fill-rule="evenodd" clip-rule="evenodd" d="M8.68812 3C7.7558 3 7 3.71354 7 4.59374V18.4062C7 19.2864 7.7558 19.9999 8.68812 19.9999H14.3152C15.2475 19.9999 16.0033 19.2864 16.0033 18.4062V4.59374C16.0033 3.71354 15.2475 3 14.3152 3H8.68812ZM8.68812 3.79687H14.3152C14.7813 3.79687 15.1592 4.15364 15.1592 4.59374V18.0055C15.1592 18.116 15.0697 18.2055 14.9592 18.2055H8.04406C7.9336 18.2055 7.84406 18.116 7.84406 18.0055V4.59374C7.84406 4.15364 8.22196 3.79687 8.68812 3.79687ZM11.5041 18.5833C11.268 18.5833 11.0766 18.7735 11.0766 19.0081C11.0766 19.2428 11.268 19.433 11.5041 19.433C11.7402 19.433 11.9316 19.2428 11.9316 19.0081C11.9316 18.7735 11.7402 18.5833 11.5041 18.5833Z" fill="white"/>
</svg>
