<svg width="36" height="36" viewBox="0 0 36 36" fill="none" xmlns="http://www.w3.org/2000/svg">
<g filter="url(#filter0_d)">
<rect x="4" y="4" width="24" height="24" fill="#834995"/>
<path d="M23.3445 7.94745C22.8485 7.49054 20.8409 6.03363 16.3649 6.01415C16.3649 6.01415 11.0882 5.6978 8.51824 8.05689C7.08871 9.48632 6.58489 11.5838 6.53019 14.1811C6.4755 16.7785 6.40911 21.6449 11.0999 22.9651H11.1038L11.0999 24.9805C11.0999 24.9805 11.0687 25.7968 11.6077 25.9608C12.2561 26.164 12.6388 25.543 13.2598 24.8751C13.5996 24.5079 14.0683 23.9689 14.4237 23.5588C17.6342 23.8283 20.0988 23.2112 20.38 23.1214C21.0284 22.9105 24.6959 22.4418 25.2895 17.5752C25.9066 12.5524 24.9927 9.38089 23.3445 7.94745Z" fill="white"/>
<path d="M23.8875 17.2081C23.3836 21.27 20.4113 21.5278 19.8646 21.7036C19.6302 21.7778 17.4625 22.3168 14.7402 22.1411C14.7402 22.1411 12.7092 24.5899 12.0765 25.2266C11.8695 25.4336 11.6429 25.4141 11.6469 25.0039C11.6469 24.7346 11.6625 21.6568 11.6625 21.6568C11.6586 21.6568 11.6586 21.6568 11.6625 21.6568C7.68638 20.5553 7.92073 16.4113 7.96369 14.2436C8.00664 12.0759 8.41677 10.2988 9.62755 9.10369C11.8031 7.13125 16.283 7.42421 16.283 7.42421C20.0676 7.43982 21.8799 8.58025 22.3018 8.96304C23.6961 10.1582 24.407 13.0173 23.8875 17.2081Z" fill="#834995"/>
<path d="M18.4587 14.0521C18.4744 14.3879 17.9705 14.4114 17.9549 14.0755C17.9119 13.2162 17.5096 12.7983 16.6816 12.7515C16.3457 12.7319 16.377 12.2281 16.7089 12.2476C17.7987 12.3062 18.4041 12.9311 18.4587 14.0521Z" fill="white"/>
<path d="M19.2513 14.4935C19.2903 12.8375 18.2554 11.5408 16.2907 11.3963C15.9587 11.3729 15.9939 10.869 16.3259 10.8924C18.5913 11.0565 19.7981 12.6149 19.7551 14.5052C19.7512 14.8411 19.2434 14.8256 19.2513 14.4935Z" fill="white"/>
<path d="M21.0873 15.017C21.0911 15.3529 20.5834 15.3567 20.5834 15.0209C20.56 11.8377 18.4392 10.1035 15.8652 10.084C15.5332 10.0801 15.5332 9.58017 15.8652 9.58017C18.7438 9.59969 21.0599 11.5877 21.0873 15.017Z" fill="white"/>
<path d="M20.6463 18.8483V18.8562C20.2245 19.5983 19.4355 20.4186 18.6231 20.1569L18.6153 20.1451C17.7911 19.9147 15.8501 18.9148 14.6236 17.9383C13.9909 17.4384 13.4128 16.8486 12.9675 16.2823C12.5653 15.7784 12.1591 15.1808 11.7646 14.4622C10.9327 12.9585 10.7491 12.2867 10.7491 12.2867C10.4875 11.4743 11.3038 10.6853 12.0497 10.2635H12.0576C12.4169 10.076 12.7606 10.1385 12.991 10.4158C12.991 10.4158 13.4754 10.9938 13.6823 11.279C13.8776 11.5446 14.1393 11.9703 14.276 12.2085C14.5143 12.6342 14.3658 13.0678 14.1315 13.2474L13.6628 13.6224C13.4246 13.8137 13.4558 14.1692 13.4558 14.1692C13.4558 14.1692 14.151 16.7978 16.7484 17.4618C16.7484 17.4618 17.1038 17.493 17.2951 17.2548L17.6701 16.7861C17.8498 16.5517 18.2834 16.4033 18.7091 16.6416C19.2832 16.9657 20.0136 17.4696 20.4979 17.9266C20.7713 18.1492 20.8338 18.4891 20.6463 18.8483Z" fill="white"/>
</g>
<defs>
<filter id="filter0_d" x="0" y="0" width="36" height="36" filterUnits="userSpaceOnUse" color-interpolation-filters="sRGB">
<feFlood flood-opacity="0" result="BackgroundImageFix"/>
<feColorMatrix in="SourceAlpha" type="matrix" values="0 0 0 0 0 0 0 0 0 0 0 0 0 0 0 0 0 0 127 0"/>
<feOffset dx="2" dy="2"/>
<feGaussianBlur stdDeviation="3"/>
<feColorMatrix type="matrix" values="0 0 0 0 0 0 0 0 0 0 0 0 0 0 0 0 0 0 0.15 0"/>
<feBlend mode="normal" in2="BackgroundImageFix" result="effect1_dropShadow"/>
<feBlend mode="normal" in="SourceGraphic" in2="effect1_dropShadow" result="shape"/>
</filter>
</defs>
</svg>
