<svg width="20" height="20" viewBox="0 0 20 20" fill="none" xmlns="http://www.w3.org/2000/svg">
<rect x="1" y="1" width="18" height="16" rx="7" fill="#834995"/>
<path d="M17.3446 1.94745C16.8486 1.49054 14.841 0.0336262 10.365 0.014148C10.365 0.014148 5.08836 -0.3022 2.51836 2.05689C1.08884 3.48632 0.585011 5.58376 0.530315 8.18106C0.47562 10.7785 0.409228 15.6449 5.10005 16.9651H5.10392L5.10005 18.9805C5.10005 18.9805 5.06884 19.7968 5.60779 19.9608C6.25619 20.164 6.63892 19.543 7.25992 18.8751C7.59975 18.5079 8.0684 17.9689 8.42384 17.5588C11.6344 17.8283 14.099 17.2112 14.3801 17.1214C15.0285 16.9105 18.696 16.4418 19.2897 11.5752C19.9067 6.55236 18.9928 3.38089 17.3446 1.94745Z" fill="white"/>
<path d="M17.8879 11.2081C17.384 15.27 14.4117 15.5278 13.8649 15.7036C13.6306 15.7778 11.4629 16.3168 8.74057 16.1411C8.74057 16.1411 6.70957 18.5899 6.07683 19.2266C5.86983 19.4336 5.64331 19.4141 5.64722 19.0039C5.64722 18.7346 5.66283 15.6568 5.66283 15.6568C5.65892 15.6568 5.65892 15.6568 5.66283 15.6568C1.68675 14.5553 1.92109 10.4113 1.96405 8.2436C2.00701 6.07595 2.41714 4.29882 3.62792 3.10369C5.80344 1.13125 10.2834 1.42421 10.2834 1.42421C14.068 1.43982 15.8803 2.58025 16.3021 2.96304C17.6964 4.15821 18.4074 7.01725 17.8879 11.2081Z" fill="#834995"/>
<path d="M12.4591 8.05206C12.4747 8.38793 11.9708 8.41141 11.9552 8.07545C11.9122 7.21619 11.5099 6.79832 10.6819 6.75145C10.346 6.73189 10.3773 6.22806 10.7092 6.24763C11.799 6.30619 12.4044 6.9311 12.4591 8.05206Z" fill="white"/>
<path d="M13.2514 8.49351C13.2904 6.83747 12.2554 5.54077 10.2908 5.39629C9.95876 5.37286 9.99393 4.86899 10.326 4.89242C12.5913 5.05651 13.7982 6.6149 13.7552 8.50525C13.7513 8.84112 13.2435 8.82555 13.2514 8.49351Z" fill="white"/>
<path d="M15.0873 9.01695C15.0911 9.35286 14.5834 9.35673 14.5834 9.02086C14.56 5.83769 12.4392 4.10352 9.86521 4.084C9.53321 4.08008 9.53321 3.58017 9.86521 3.58017C12.7438 3.59969 15.0599 5.58769 15.0873 9.01695Z" fill="white"/>
<path d="M14.6464 12.8483V12.8562C14.2246 13.5983 13.4356 14.4186 12.6232 14.1569L12.6154 14.1451C11.7913 13.9147 9.85018 12.9148 8.62375 11.9383C7.99101 11.4384 7.41292 10.8486 6.96766 10.2823C6.5654 9.77842 6.15923 9.18082 5.76475 8.46221C4.93284 6.95847 4.74927 6.28669 4.74927 6.28669C4.48758 5.47429 5.30388 4.68529 6.04984 4.26351H6.05771C6.41701 4.07599 6.76071 4.13851 6.99114 4.41577C6.99114 4.41577 7.47549 4.99377 7.68244 5.27899C7.87775 5.54456 8.13944 5.97025 8.27614 6.20851C8.5144 6.63421 8.36592 7.06777 8.13162 7.24738L7.66292 7.62238C7.42471 7.81373 7.45592 8.16916 7.45592 8.16916C7.45592 8.16916 8.15114 10.7978 10.7485 11.4618C10.7485 11.4618 11.104 11.493 11.2953 11.2548L11.6703 10.7861C11.8499 10.5517 12.2835 10.4033 12.7092 10.6416C13.2834 10.9657 14.0137 11.4696 14.4981 11.9266C14.7714 12.1492 14.8339 12.4891 14.6464 12.8483Z" fill="white"/>
</svg>
